<?xml version="1.0" standalone="no"?>
<!DOCTYPE svg PUBLIC "-//W3C//DTD SVG 20010904//EN"
 "http://www.w3.org/TR/2001/REC-SVG-20010904/DTD/svg10.dtd">
<svg version="1.0" xmlns="http://www.w3.org/2000/svg"
 width="610.000000pt" height="610.000000pt" viewBox="0 0 610.000000 610.000000"
 preserveAspectRatio="xMidYMid meet">
<metadata>
Created by potrace 1.14, written by Peter Selinger 2001-2017
</metadata>
<g transform="translate(0.000000,610.000000) scale(0.100000,-0.100000)"
fill="#000000" stroke="none">
<path d="M0 3050 l0 -3050 3050 0 3050 0 0 3050 0 3050 -3050 0 -3050 0 0
-3050z m1174 1705 l-7 -176 54 21 c30 12 103 42 163 66 60 25 112 41 116 37
15 -17 70 -187 63 -193 -5 -4 -78 -26 -163 -50 -85 -24 -158 -46 -163 -50 -4
-3 45 -67 108 -141 63 -73 114 -137 115 -141 0 -8 -171 -131 -174 -126 -2 2
-47 68 -101 148 -54 80 -101 149 -105 153 -4 4 -53 -62 -110 -148 l-103 -155
-26 17 c-14 9 -56 37 -92 63 l-67 46 120 139 c65 76 115 141 111 145 -4 4 -78
26 -163 50 -85 24 -159 46 -163 50 -7 6 48 176 62 193 6 5 151 -49 320 -120
11 -5 12 22 6 170 l-7 177 106 0 107 0 -7 -175z m1058 -812 c57 -50 113 -102
126 -116 l23 -24 -51 -68 c-221 -292 -258 -708 -95 -1052 101 -215 244 -362
452 -466 105 -53 201 -78 328 -84 240 -12 447 66 626 234 36 35 69 63 73 63 4
0 65 -50 137 -111 l129 -111 -20 -28 c-11 -16 -44 -49 -73 -75 -178 -161 -346
-250 -577 -308 -68 -17 -116 -21 -245 -21 -229 -1 -362 31 -565 135 -369 189
-629 554 -707 994 -21 119 -20 341 1 465 23 127 75 280 136 398 51 99 175 275
190 270 5 -2 55 -44 112 -95z m1849 -313 c243 -50 445 -158 629 -336 199 -193
327 -423 391 -703 29 -123 36 -384 15 -511 -33 -202 -109 -399 -214 -551 -69
-99 -79 -112 -90 -108 -15 6 -261 213 -261 221 -1 4 19 36 44 72 59 84 118
210 145 311 28 102 38 321 20 433 -65 406 -351 728 -727 818 -98 24 -286 22
-384 -4 -144 -38 -270 -108 -381 -210 l-58 -54 -131 117 -131 118 69 69 c160
161 407 288 638 327 101 17 320 12 426 -9z m726 -2737 c-3 -10 -5 -4 -5 12 0
17 2 24 5 18 2 -7 2 -21 0 -30z m132 -3 c12 0 21 6 21 15 0 8 4 15 9 15 5 0
11 -7 15 -15 3 -8 14 -15 25 -15 10 0 21 7 25 15 3 8 10 15 17 15 7 0 9 -14 4
-42 -9 -51 -13 -57 -26 -38 -9 13 -10 13 -6 0 6 -22 39 -25 54 -4 7 10 14 16
16 13 1 -2 1 -86 -1 -186 l-4 -183 -41 -1 c-23 -1 -52 -3 -64 -4 -27 -3 -29 7
-6 26 50 42 67 154 34 224 -22 46 -62 101 -76 104 -20 5 -31 16 -43 44 -15 34
-5 58 13 34 7 -10 22 -17 34 -17z m-4166 -42 c84 -25 139 -120 116 -201 -46
-169 -292 -169 -338 0 -23 81 35 179 117 201 51 14 59 14 105 0z m1260 -1 c36
-16 51 -32 61 -64 7 -21 4 -23 -29 -23 -22 0 -38 6 -41 15 -4 8 -17 15 -29 15
-48 0 -35 -54 15 -65 17 -4 44 -18 60 -32 25 -21 30 -32 30 -70 0 -36 -6 -50
-29 -74 -41 -41 -108 -41 -150 -1 -16 15 -32 37 -36 50 -6 20 -3 22 27 22 21
0 40 -7 51 -20 20 -24 40 -25 61 -4 28 27 17 45 -39 68 -59 25 -85 54 -85 93
0 46 15 72 53 88 40 18 41 18 80 2z m2762 3 c-77 -9 -118 -30 -155 -82 -38
-51 -38 -68 -2 -68 25 0 27 -3 30 -45 2 -47 -11 -85 -29 -85 -6 0 -3 10 5 22
25 35 20 65 -15 90 -24 18 -29 27 -24 48 19 74 104 131 195 129 l55 -2 -60 -7z
m-1205 -125 c0 -117 1 -125 21 -136 16 -8 28 -8 45 0 23 10 24 14 24 136 l0
125 36 0 36 0 -4 -136 -3 -136 -33 -29 c-46 -41 -108 -41 -154 0 l-33 29 -3
136 -4 136 36 0 36 0 0 -125z m635 15 c21 -60 42 -110 46 -110 4 0 24 50 45
110 l39 110 48 0 47 0 -2 -162 -3 -163 -32 -3 -33 -3 -1 113 0 113 -41 -112
c-38 -106 -42 -113 -67 -113 -26 0 -30 7 -67 112 l-39 112 -3 -113 -3 -112
-32 3 -32 3 -3 163 -2 162 47 0 48 0 40 -110z m401 79 c4 -8 1 -8 -14 0 -12 6
-24 16 -28 22 -4 8 -1 8 14 0 12 -6 24 -16 28 -22z m247 -9 c-12 -47 58 -98
94 -69 14 12 16 12 11 -1 -2 -8 -19 -16 -36 -18 -31 -3 -32 -4 -17 -25 25 -36
17 -37 -19 -1 -30 30 -40 34 -88 34 -60 0 -90 -16 -113 -60 -21 -40 -19 -77 6
-116 20 -33 54 -49 124 -57 26 -3 25 -4 -8 -6 -82 -3 -147 51 -147 121 0 47
13 75 49 105 l26 22 -42 1 c-33 0 -43 4 -43 16 0 13 3 14 14 4 9 -6 52 -13
100 -14 51 -1 91 -7 98 -14 26 -26 30 -10 5 16 -26 27 -35 61 -20 75 10 11 11
8 6 -13z m-73 -15 c0 -14 -9 -29 -21 -35 -28 -16 -33 -7 -9 15 11 10 20 23 20
28 0 5 -11 -2 -25 -17 -25 -27 -33 -30 -59 -20 -27 10 -18 21 15 16 24 -3 31
0 35 15 8 29 44 27 44 -2z m123 -37 c6 -4 18 -1 26 5 11 10 13 9 10 -2 -3 -8
-10 -16 -16 -18 -16 -6 -53 33 -52 55 0 12 3 10 10 -8 6 -13 15 -28 22 -32z
m-3809 8 c49 -20 76 -61 76 -113 0 -90 -53 -139 -141 -131 l-48 5 -3 -41 c-3
-38 -5 -41 -35 -44 l-33 -3 0 165 0 166 30 0 c17 0 30 -4 30 -10 0 -5 15 -3
33 5 41 18 50 18 91 1z m303 -12 c31 -20 53 -55 60 -98 l6 -36 -97 0 c-53 0
-96 -4 -96 -9 0 -21 31 -33 67 -27 129 22 137 19 78 -33 -91 -79 -242 0 -220
115 17 92 123 138 202 88z m291 -10 c20 -23 22 -35 22 -125 l0 -99 -30 0 -30
0 0 80 c0 67 -3 83 -20 100 -24 24 -30 24 -56 6 -16 -12 -20 -29 -23 -100 l-3
-86 -29 0 -29 0 0 126 0 127 38 -5 c20 -3 46 -2 57 3 31 12 78 0 103 -27z
m584 26 c20 -6 50 -26 67 -46 72 -81 9 -204 -104 -204 -80 0 -150 80 -132 152
13 52 66 97 127 107 3 1 22 -4 42 -9z m516 -27 c3 -26 -1 -32 -20 -35 -22 -3
-23 -8 -28 -93 l-5 -90 -32 -3 -33 -3 0 126 0 126 40 -3 c22 -1 43 1 47 5 14
14 28 0 31 -30z m199 18 c38 -18 63 -45 63 -70 0 -18 -62 -13 -75 6 -7 9 -26
16 -45 16 -61 0 -92 -71 -50 -113 24 -24 72 -26 90 -5 16 19 80 20 80 1 0 -8
-16 -28 -35 -45 -67 -58 -166 -36 -206 46 -17 35 -18 48 -10 80 12 45 45 80
87 93 43 12 55 11 101 -9z m290 -6 c31 -21 53 -56 60 -99 l6 -36 -97 0 c-53 0
-96 -4 -96 -9 0 -21 31 -33 67 -27 129 22 137 19 78 -33 -66 -58 -172 -35
-209 44 -54 114 84 230 191 160z m665 15 c75 -21 115 -106 82 -175 -26 -55
-67 -77 -133 -72 -47 3 -59 9 -88 40 -65 72 -33 177 62 206 40 12 35 12 77 1z
m-1472 -79 c0 -98 5 -111 39 -111 43 0 51 16 51 107 l0 83 35 0 35 0 0 -124 0
-123 -85 -1 c-76 -1 -89 2 -113 23 -26 22 -27 29 -30 124 l-4 101 36 0 36 0 0
-79z m2295 9 c8 13 25 4 25 -13 0 -7 -9 -13 -20 -14 -11 -1 -20 2 -20 8 0 5
-4 9 -10 9 -5 0 -10 -10 -10 -22 0 -12 -3 -19 -6 -15 -4 3 -3 18 0 32 5 21 10
24 21 15 9 -8 15 -8 20 0z m99 -15 c18 -27 17 -28 -8 -19 -9 3 -13 10 -10 15
10 17 -9 9 -22 -8 -7 -10 -16 -15 -20 -11 -7 8 23 48 36 48 4 0 15 -11 24 -25z
m-244 -20 c13 -16 6 -65 -10 -65 -6 0 -5 9 2 21 11 17 10 22 -4 33 -10 7 -18
16 -18 20 0 11 17 6 30 -9z m338 -14 c-7 -9 -13 -17 -14 -19 -1 -2 -1 8 0 21
0 15 6 23 14 20 10 -4 10 -9 0 -22z m-410 -8 c-10 -2 -26 -2 -35 0 -10 3 -2 5
17 5 19 0 27 -2 18 -5z m349 -17 c4 -3 0 -13 -8 -20 -11 -11 -28 -12 -84 -4
-38 5 -82 9 -97 9 -26 -1 -36 8 -22 21 8 8 203 3 211 -6z m20 -48 c-3 -8 -6
-5 -6 6 -1 11 2 17 5 13 3 -3 4 -12 1 -19z m-159 -1 c14 6 15 4 5 -9 -7 -8
-10 -17 -7 -20 2 -3 -2 -8 -11 -11 -12 -5 -15 1 -14 26 0 18 3 27 5 20 3 -7
13 -9 22 -6z m196 -3 c3 -8 2 -12 -4 -9 -6 3 -10 10 -10 16 0 14 7 11 14 -7z
m-114 2 c0 -2 -9 -6 -20 -9 -11 -3 -20 -1 -20 4 0 5 9 9 20 9 11 0 20 -2 20
-4z m60 -36 c-6 -11 -20 -25 -33 -31 -18 -10 -17 -6 7 20 34 36 41 39 26 11z
m-86 -4 c-3 -8 2 -16 13 -20 15 -4 15 -5 -2 -3 -20 2 -35 37 -16 37 6 0 8 -6
5 -14z m-141 -23 c-7 -2 -19 -2 -25 0 -7 3 -2 5 12 5 14 0 19 -2 13 -5z m-62
-56 l-23 -22 17 28 c10 15 20 25 23 22 3 -3 -5 -16 -17 -28z m186 -74 c-3 -10
-5 -2 -5 17 0 19 2 27 5 18 2 -10 2 -26 0 -35z"/>
<path d="M4982 834 c-7 -8 -8 -14 -3 -14 10 0 25 19 20 25 -2 1 -10 -3 -17
-11z"/>
<path d="M652 765 c-36 -30 -47 -75 -28 -120 15 -35 59 -65 96 -65 62 0 118
70 105 131 -16 72 -115 103 -173 54z"/>
<path d="M1033 710 c-68 -27 -48 -130 25 -130 38 0 60 19 68 55 10 52 -43 95
-93 75z"/>
<path d="M1318 708 c-46 -16 -32 -28 34 -28 54 0 60 2 48 14 -22 20 -51 26
-82 14z"/>
<path d="M2240 713 c-51 -19 -66 -77 -30 -113 25 -25 72 -26 93 -2 17 19 22
68 9 88 -7 10 -47 35 -54 33 -2 0 -10 -3 -18 -6z"/>
<path d="M3204 710 c-47 -18 -36 -30 28 -30 54 0 60 2 48 14 -21 20 -51 26
-76 16z"/>
<path d="M3892 708 c-22 -11 -39 -49 -33 -78 9 -49 75 -66 111 -30 52 52 -12
139 -78 108z"/>
</g>
</svg>
